# xmcd CD database file
#
# Track frame offsets:
#	150
#	59665
#	75253
#	99173
#
# Disc length: 1658 seconds
#
# Revision: 0
# Processed by: cddbd v1.5.1PL0 Copyright (c) Steve Scherf et al.
# Submitted via: CDex 1.51
#
DISCID=23067804
DTITLE=The Jazz Ministers - The Jazz Ministers
DYEAR=1900
DGENRE=Jazz
TTITLE0=Zandile
TTITLE1=Sekumaxa
TTITLE2=Vala Madoda
TTITLE3=Take Me To Brazil
EXTD=
EXTT0=
EXTT1=
EXTT2=
EXTT3=
PLAYORDER=
